<svg height="512pt" viewBox="0 0 512 512" width="512pt" xmlns="http://www.w3.org/2000/svg"><path d="m241 134.023438v63.953124l47.960938-31.976562zm0 0"/><path d="m497 60c8.289062 0 15-6.710938 15-15s-6.710938-15-15-15h-226v-15c0-8.289062-6.710938-15-15-15s-15 6.710938-15 15v15h-226c-8.289062 0-15 6.710938-15 15s6.710938 15 15 15h15v272h-15c-8.289062 0-15 6.710938-15 15s6.710938 15 15 15h209.78125l-95.988281 120h-22.792969c-8.289062 0-15 6.710938-15 15s6.710938 15 15 15h30c4.554688 0 8.863281-2.066406 11.71875-5.625l93.28125-116.613281v107.238281c0 8.289062 6.710938 15 15 15s15-6.710938 15-15v-107.238281l93.28125 116.613281c2.855469 3.558594 7.164062 5.625 11.71875 5.625h30c8.289062 0 15-6.710938 15-15s-6.710938-15-15-15h-22.792969l-95.988281-120h209.78125c8.289062 0 15-6.710938 15-15s-6.710938-15-15-15h-15v-272zm-286 46c0-5.535156 3.046875-10.621094 7.925781-13.226562 4.863281-2.59375 10.808594-2.316407 15.394531.746093l90 60c4.175782 2.78125 6.679688 7.46875 6.679688 12.480469 0 5.007812-2.503906 9.695312-6.679688 12.480469l-90 60c-4.648437 3.097656-10.585937 3.324219-15.394531.746093-4.878906-2.605468-7.925781-7.691406-7.925781-13.226562zm-105 196c-8.285156 0-15-6.714844-15-15s6.714844-15 15-15 15 6.714844 15 15-6.714844 15-15 15zm301 0h-241c-8.289062 0-15-6.710938-15-15s6.710938-15 15-15h241c8.289062 0 15 6.710938 15 15s-6.710938 15-15 15zm0 0"/></svg>